<svg width="208" height="80" xmlns="http://www.w3.org/2000/svg" xmlns:xlink="http://www.w3.org/1999/xlink" xml:space="preserve" overflow="hidden"><defs><filter id="fx0" x="-10%" y="-10%" width="120%" height="120%" filterUnits="userSpaceOnUse" primitiveUnits="userSpaceOnUse"><feComponentTransfer color-interpolation-filters="sRGB"><feFuncR type="discrete" tableValues="0.000000 0.000000"/><feFuncG type="discrete" tableValues="0.000000 0.000000"/><feFuncB type="discrete" tableValues="0.000000 0.000000"/><feFuncA type="linear" slope="0.780392" intercept="0.000000"/></feComponentTransfer><feGaussianBlur stdDeviation="6.745232 6.745232"/></filter><clipPath id="clip1"><rect x="24" y="22" width="208" height="80"/></clipPath><clipPath id="clip2"><rect x="24" y="22" width="208" height="80"/></clipPath><clipPath id="clip3"><rect x="2.16177" y="1.93609" width="206.676" height="77.141"/></clipPath></defs><g clip-path="url(#clip1)" transform="translate(-24 -22)"><g clip-path="url(#clip2)"><g clip-path="url(#clip3)" filter="url(#fx0)" transform="translate(22 22)"><g><g><g><g><g><path d="M34.012 6.28055C34.012 9.04714 31.7961 11.3024 29.0688 11.3024 26.3416 11.3024 24.1257 9.04714 24.1257 6.28055L24.1257 0.681813C24.1257 0.314683 23.8241 0 23.4439 0L20.992 0C20.6248 0 20.3102 0.301571 20.3102 0.681813L20.3102 6.28055C20.3102 11.145 24.2306 15.1048 29.0557 15.1048 33.8809 15.1048 37.8013 11.145 37.8013 6.28055L37.8013 0.681813C37.8013 0.314683 37.4997 0 37.1195 0L34.6676 0C34.3004 0 33.9858 0.301571 33.9858 0.681813L33.9858 6.28055Z" fill="#FFFFFF" fill-rule="nonzero" fill-opacity="1" transform="matrix(1 0 0 1.00492 22.3975 22.3563)"/><path d="M13.7805 30.7865C13.7805 31.6781 13.0069 32.3992 12.0891 32.3075 11.2893 32.2288 10.7254 31.4945 10.7254 30.6947L10.7254 26.4858C10.7254 23.6537 8.58822 21.1755 5.76919 20.9789 2.66169 20.7691 0.0786708 23.2341 0.0786708 26.2891L0.0786708 35.3756C0.0786708 35.7427 0.380242 36.0574 0.760484 36.0574L3.21239 36.0574C3.57952 36.0574 3.8942 35.7559 3.8942 35.3756L3.8942 26.3809C3.8942 25.5811 4.47112 24.8468 5.25783 24.7682 6.17565 24.6764 6.94925 25.3975 6.94925 26.2891L6.94925 30.5898C6.94925 33.422 9.08647 35.9001 11.9186 36.0968 15.0261 36.3066 17.6091 33.8415 17.6091 30.7865L17.6091 21.6213C17.6091 21.2542 17.3076 20.9395 16.9273 20.9395L14.4754 20.9395C14.1083 20.9395 13.7936 21.2411 13.7936 21.6213L13.7936 30.7865Z" fill="#FFFFFF" fill-rule="nonzero" fill-opacity="1" transform="matrix(1 0 0 1.00492 22.3975 22.3563)"/><path d="M54.886 9.83384C54.886 10.7254 54.1124 11.4466 53.1945 11.3548 52.3947 11.2761 51.8309 10.5419 51.8309 9.74206L51.8309 5.53318C51.8309 2.70103 49.6937 0.2229 46.8615 0.0262236 43.7541-0.183565 41.171 2.28145 41.171 5.3365L41.171 14.423C41.171 14.7901 41.4726 15.1048 41.8528 15.1048L44.3047 15.1048C44.6719 15.1048 44.9866 14.8032 44.9866 14.423L44.9866 5.44139C44.9866 4.64157 45.5635 3.90731 46.3502 3.82864 47.268 3.73686 48.0416 4.45801 48.0416 5.34961L48.0416 9.65028C48.0416 12.4824 50.1788 14.9606 53.011 15.1572 56.1185 15.367 58.7015 12.902 58.7015 9.84696L58.7015 0.681813C58.7015 0.314683 58.3999 0 58.0197 0L55.5678 0C55.2006 0 54.886 0.301571 54.886 0.681813L54.886 9.83384Z" fill="#FFFFFF" fill-rule="nonzero" fill-opacity="1" transform="matrix(1 0 0 1.00492 22.3975 22.3563)"/><path d="M12.2333 5.72985 4.83825 5.72985C4.24822 5.72985 3.7762 5.29716 3.7762 4.77269 3.7762 4.24822 4.26133 3.81553 4.83825 3.81553L16.2848 3.81553C16.652 3.81553 16.9667 3.51396 16.9667 3.13372L16.9667 0.73426C16.9667 0.36713 16.6651 0.0524472 16.2848 0.0524472L4.83825 0.0524472C2.16345 0.0524472 0 2.17656 0 4.77269 0 7.36883 2.16345 9.49294 4.83825 9.49294L12.2333 9.49294C12.8233 9.49294 13.3085 9.92563 13.3085 10.4501 13.3085 10.9746 12.8233 11.4073 12.2333 11.4073L0.786708 11.4073C0.419577 11.4073 0.104894 11.7088 0.104894 12.0891L0.104894 14.5016C0.104894 14.8688 0.406466 15.1835 0.786708 15.1835L12.2333 15.1835C14.895 15.1835 17.0716 13.0593 17.0716 10.4632 17.0716 7.86708 14.895 5.74297 12.2333 5.74297Z" fill="#FFFFFF" fill-rule="nonzero" fill-opacity="1" transform="matrix(1 0 0 1.00492 22.3975 22.3563)"/><path d="M58.0984 20.9002 42.4953 20.9002C42.1282 20.9002 41.8135 21.2018 41.8135 21.582L41.8135 24.0339C41.8135 24.401 42.1151 24.7157 42.4953 24.7157L48.3694 24.7157 48.3694 35.4018C48.3694 35.769 48.671 36.0837 49.0512 36.0837L51.5031 36.0837C51.8703 36.0837 52.1849 35.7821 52.1849 35.4018L52.1849 24.7157 58.1115 24.7157C58.4786 24.7157 58.7933 24.4142 58.7933 24.0339L58.7933 21.582C58.7933 21.2149 58.4917 20.9002 58.1115 20.9002Z" fill="#FFFFFF" fill-rule="nonzero" fill-opacity="1" transform="matrix(1 0 0 1.00492 22.3975 22.3563)"/><path d="M25.6729 26.7087 25.6073 26.7087C25.0697 26.7087 24.6371 26.2498 24.6371 25.686 24.6371 25.1222 25.0697 24.6633 25.6073 24.6633L37.4211 24.6633C37.7882 24.6633 38.1029 24.3617 38.1029 23.9815L38.1029 21.6345C38.1029 21.2673 37.8013 20.9526 37.4211 20.9526L25.6073 20.9526C23.0374 20.9526 20.9395 23.0768 20.9395 25.686 20.9395 26.7874 21.3198 27.7839 21.936 28.5968 21.3067 29.4491 20.9395 30.5111 21.0051 31.665 21.1493 34.1693 23.339 36.0574 25.8433 36.0574L37.4866 36.0574C37.8537 36.0574 38.1684 35.7559 38.1684 35.3756L38.1684 33.0286C38.1684 32.6615 37.8669 32.3468 37.4866 32.3468L25.7253 32.3468C25.2402 32.3468 24.7944 32.019 24.7157 31.5339 24.6108 30.9307 25.0829 30.3931 25.6729 30.3931L38.1684 30.3931 38.1684 26.6956 25.6729 26.6956Z" fill="#FFFFFF" fill-rule="nonzero" fill-opacity="1" transform="matrix(1 0 0 1.00492 22.3975 22.3563)"/><path d="M111.922 31.1536 94.3656 31.1536C91.3499 31.1536 88.898 28.6624 88.898 25.6073L88.898 4.35312 86.5772 4.35312 81.3062 4.31378C81.162 4.31378 81.044 4.43179 81.044 4.57602L81.044 8.69312C81.044 8.83735 81.162 8.95535 81.3062 8.95535L84.2564 8.95535 84.2564 25.6336C84.2564 31.2454 88.7931 35.8083 94.3656 35.8083L111.922 35.8083C112.066 35.8083 112.184 35.6903 112.184 35.5461L112.184 31.429C112.184 31.2847 112.066 31.1667 111.922 31.1667Z" fill="#FFFFFF" fill-rule="nonzero" fill-opacity="1" transform="matrix(1 0 0 1.00492 22.3975 22.3563)"/><path d="M79.3526 0 75.2355 0C75.0912 0 74.9732 0.118006 74.9732 0.262236L74.9732 4.30067C73.4129 4.27444 72.1411 3.0026 72.1411 1.42919L72.1411 0.262236C72.1411 0.118006 72.0231 0 71.8788 0L67.7617 0C67.6175 0 67.4995 0.118006 67.4995 0.262236L67.4995 1.42919C67.4995 5.5594 70.843 8.91602 74.9732 8.92913L74.9732 23.6143C74.9732 27.7314 71.6953 31.0881 67.6175 31.2192 67.4733 31.2192 67.3684 31.3372 67.3684 31.4683L67.3684 35.5854C67.3684 35.7296 67.4864 35.8476 67.6306 35.8476 74.2521 35.7034 79.6017 30.2751 79.6017 23.6143L79.6017 0.262236C79.6017 0.118006 79.4837 0 79.3395 0Z" fill="#FFFFFF" fill-rule="nonzero" fill-opacity="1" transform="matrix(1 0 0 1.00492 22.3975 22.3563)"/><path d="M112.263 7.23771C112.263 3.56641 109.274 0.590031 105.589 0.590031L97.7091 0.590031C94.0247 0.590031 91.0352 3.56641 91.0352 7.23771L91.0352 21.2018C91.0352 24.8731 94.0247 27.8494 97.7091 27.8494L104.121 27.8494C104.265 27.8494 104.383 27.7314 104.383 27.5872L104.383 23.4701C104.383 23.3259 104.265 23.2079 104.121 23.2079L97.7091 23.2079C96.5815 23.2079 95.6636 22.3032 95.6636 21.1887L95.6636 7.23771C95.6636 6.12321 96.5815 5.21849 97.7091 5.21849L105.589 5.21849C106.717 5.21849 107.635 6.12321 107.635 7.23771L107.635 8.60134C106.363 11.5122 103.504 13.4134 100.266 13.4134L98.1549 13.4134C98.0107 13.4134 97.8926 13.5314 97.8926 13.6756L97.8926 17.7927C97.8926 17.9369 98.0107 18.0549 98.1549 18.0549L100.266 18.0549C102.993 18.0549 105.537 17.2027 107.635 15.7079L107.635 20.4413C107.635 20.5855 107.753 20.7035 107.897 20.7035L112.014 20.7035C112.158 20.7035 112.276 20.5855 112.276 20.4413L112.276 7.23771Z" fill="#FFFFFF" fill-rule="nonzero" fill-opacity="1" transform="matrix(1 0 0 1.00492 22.3975 22.3563)"/><path d="M111.988 25.5287C111.988 26.9914 110.802 28.1772 109.339 28.1772 107.876 28.1772 106.691 26.9914 106.691 25.5287 106.691 24.0659 107.876 22.8801 109.339 22.8801 110.802 22.8801 111.988 24.0659 111.988 25.5287Z" fill="#FFFFFF" fill-rule="nonzero" fill-opacity="1" transform="matrix(1 0 0 1.00492 22.3975 22.3563)"/><path d="M130.987 0.0393354 121.717 0.0393354C121.573 0.0393354 121.455 0.157342 121.455 0.301571L121.455 4.32689C121.455 4.47112 121.573 4.58913 121.717 4.58913L130.987 4.58913 130.987 22.8932C130.987 24.3486 129.807 25.5418 128.338 25.5418L126.686 25.5418 126.686 20.9133 128.43 20.9133C128.574 20.9133 128.692 20.7953 128.692 20.6511L128.692 16.6258C128.692 16.4815 128.574 16.3635 128.43 16.3635L126.686 16.3635 126.686 13.6625 128.43 13.6625C128.574 13.6625 128.692 13.5445 128.692 13.4003L128.692 9.37493C128.692 9.2307 128.574 9.1127 128.43 9.1127L126.686 9.1127 126.686 6.38544C126.686 6.24121 126.568 6.12321 126.424 6.12321L122.399 6.12321C122.254 6.12321 122.136 6.24121 122.136 6.38544L122.136 25.5287 121.704 25.5287C121.559 25.5287 121.441 25.6467 121.441 25.7909L121.441 29.8162C121.441 29.9604 121.559 30.0785 121.704 30.0785L128.325 30.0785C129.256 30.0785 130.148 29.8949 130.974 29.5671L130.974 35.5461C130.974 35.6903 131.092 35.8083 131.236 35.8083L135.261 35.8083C135.405 35.8083 135.523 35.6903 135.523 35.5461L135.523 0.0262236 130.974 0.0262236Z" fill="#FFFFFF" fill-rule="nonzero" fill-opacity="1" transform="matrix(1 0 0 1.00492 22.3975 22.3563)"/><path d="M152.844 10.0436 154.365 10.0436C156.371 10.0436 158.246 9.44049 159.82 8.41777 159.23 10.8303 157.066 12.6267 154.47 12.6267L152.949 12.6267C152.805 12.6267 152.687 12.7447 152.687 12.8889L152.687 16.9142C152.687 17.0584 152.805 17.1764 152.949 17.1764L165.943 17.1764C166.087 17.1764 166.205 17.0584 166.205 16.9142L166.205 12.8889C166.205 12.7447 166.087 12.6267 165.943 12.6267L162.862 12.6267C163.858 11.1188 164.448 9.32248 164.501 7.39505 164.501 7.25082 164.383 7.13282 164.238 7.13282L161.419 7.13282C163.202 5.37583 164.317 2.95015 164.396 0.275348 164.396 0.131118 164.278 0.0131118 164.133 0.0131118L160.095 0.0131118C159.964 0.0131118 159.846 0.118006 159.846 0.262236 159.715 3.18617 157.302 5.52006 154.352 5.52006L152.831 5.52006C152.687 5.52006 152.569 5.63807 152.569 5.7823L152.569 9.80762C152.569 9.95185 152.687 10.0699 152.831 10.0699Z" fill="#FFFFFF" fill-rule="nonzero" fill-opacity="1" transform="matrix(1 0 0 1.00492 22.3975 22.3563)"/><path d="M137.28 10.0436 138.801 10.0436C140.808 10.0436 142.683 9.44049 144.256 8.41777 143.666 10.8303 141.502 12.6267 138.906 12.6267L137.385 12.6267C137.241 12.6267 137.123 12.7447 137.123 12.8889L137.123 16.9142C137.123 17.0584 137.241 17.1764 137.385 17.1764L150.379 17.1764C150.523 17.1764 150.641 17.0584 150.641 16.9142L150.641 12.8889C150.641 12.7447 150.523 12.6267 150.379 12.6267L147.311 12.6267C148.307 11.1188 148.898 9.32248 148.95 7.39505 148.95 7.25082 148.832 7.13282 148.688 7.13282L145.869 7.13282C147.652 5.37583 148.766 2.95015 148.845 0.275348 148.845 0.131118 148.727 0.0131118 148.583 0.0131118L144.544 0.0131118C144.413 0.0131118 144.295 0.118006 144.295 0.262236 144.164 3.18617 141.752 5.52006 138.801 5.52006L137.28 5.52006C137.136 5.52006 137.018 5.63807 137.018 5.7823L137.018 9.80762C137.018 9.95185 137.136 10.0699 137.28 10.0699Z" fill="#FFFFFF" fill-rule="nonzero" fill-opacity="1" transform="matrix(1 0 0 1.00492 22.3975 22.3563)"/><path d="M156.738 18.999C156.883 18.999 157.001 19.1164 157.001 19.2612L157.001 35.5067C157.001 35.6516 156.883 35.769 156.738 35.769L152.713 35.769C152.568 35.769 152.451 35.6516 152.451 35.5067L152.451 19.2612C152.451 19.1164 152.568 18.999 152.713 18.999Z" fill="#FFFFFF" fill-rule="nonzero" fill-opacity="1" transform="matrix(1 0 0 1.00492 22.3975 22.3563)"/><path d="M140.231 18.999C140.086 18.999 139.968 19.117 139.968 19.2612L139.968 21.0838C139.968 22.985 138.801 24.5453 137.32 24.6895 137.189 24.7026 137.084 24.8075 137.084 24.9386L137.084 28.9771C137.084 29.1213 137.202 29.2524 137.359 29.2393 141.332 29.082 144.518 25.4762 144.518 21.0838L144.518 19.2612C144.518 19.117 144.4 18.999 144.256 18.999L140.231 18.999Z" fill="#FFFFFF" fill-rule="nonzero" fill-opacity="1" transform="matrix(1 0 0 1.00492 22.3975 22.3563)"/><path d="M150.576 18.999 146.551 18.999C146.406 18.999 146.288 19.117 146.288 19.2612L146.288 21.8574C146.288 22.4998 146.21 25.7516 143.6 28.4133 141.214 30.8389 138.303 31.1667 137.32 31.2192 137.189 31.2192 137.084 31.3372 137.084 31.4814L137.084 35.5067C137.084 35.651 137.202 35.769 137.346 35.769 138.723 35.7165 143.286 35.3232 146.944 31.5339 150.733 27.6003 150.838 22.8539 150.851 21.8705L150.851 19.2743C150.851 19.1301 150.733 19.0121 150.589 19.0121Z" fill="#FFFFFF" fill-rule="nonzero" fill-opacity="1" transform="matrix(1 0 0 1.00492 22.3975 22.3563)"/><path d="M165.956 18.999 161.931 18.999C161.786 18.999 161.668 19.117 161.668 19.2612L161.668 21.6345C161.668 21.9229 161.59 22.1852 161.432 22.4343 161.223 22.7752 160.973 22.9719 160.803 23.0768 160.134 23.5357 159.282 23.5881 158.823 23.575 158.679 23.575 158.561 23.6799 158.561 23.8241L158.561 28.0986C158.967 28.1379 161.891 28.4001 164.147 26.1974 165.995 24.401 166.179 22.1589 166.205 21.6213L166.205 19.2481C166.205 19.1039 166.087 18.9859 165.943 18.9859Z" fill="#FFFFFF" fill-rule="nonzero" fill-opacity="1" transform="matrix(1 0 0 1.00492 22.3975 22.3563)"/></g></g></g></g></g></g><g><g><g><path d="M34.1747 6.31059C34.1747 9.09041 31.9482 11.3564 29.2079 11.3564 26.4676 11.3564 24.2411 9.09041 24.2411 6.31059L24.2411 0.685074C24.2411 0.316188 23.9381 0 23.556 0L21.0924 0C20.7235 0 20.4073 0.303014 20.4073 0.685074L20.4073 6.31059C20.4073 11.1983 24.3465 15.177 29.1947 15.177 34.0429 15.177 37.9821 11.1983 37.9821 6.31059L37.9821 0.685074C37.9821 0.316188 37.6791 0 37.297 0L34.8334 0C34.4645 0 34.1483 0.303014 34.1483 0.685074L34.1483 6.31059Z" fill="#FFFFFF" fill-rule="nonzero" fill-opacity="1" transform="matrix(1 0 0 1.00492 44 44.2695)"/><path d="M13.8464 30.9337C13.8464 31.8296 13.0691 32.5542 12.1469 32.462 11.3432 32.3829 10.7767 31.6452 10.7767 30.8415L10.7767 26.6125C10.7767 23.7668 8.6293 21.2768 5.79678 21.0792 2.67442 20.8684 0.079047 23.3452 0.079047 26.4149L0.079047 35.5448C0.079047 35.9137 0.382061 36.2299 0.764121 36.2299L3.22775 36.2299C3.59664 36.2299 3.91283 35.9269 3.91283 35.5448L3.91283 26.5071C3.91283 25.7035 4.49251 24.9657 5.28298 24.8866 6.20519 24.7944 6.98249 25.519 6.98249 26.4149L6.98249 30.7361C6.98249 33.5818 9.12993 36.0718 11.9756 36.2694 15.098 36.4802 17.6934 34.0034 17.6934 30.9337L17.6934 21.7248C17.6934 21.3559 17.3903 21.0397 17.0083 21.0397L14.5447 21.0397C14.1758 21.0397 13.8596 21.3427 13.8596 21.7248L13.8596 30.9337Z" fill="#FFFFFF" fill-rule="nonzero" fill-opacity="1" transform="matrix(1 0 0 1.00492 44 44.2695)"/><path d="M55.1485 9.88088C55.1485 10.7767 54.3712 11.5013 53.449 11.4091 52.6453 11.3301 52.0788 10.5923 52.0788 9.78866L52.0788 5.55964C52.0788 2.71395 49.9314 0.223967 47.0857 0.026349 43.9633-0.184443 41.3679 2.29236 41.3679 5.36202L41.3679 14.492C41.3679 14.8608 41.671 15.177 42.053 15.177L44.5166 15.177C44.8855 15.177 45.2017 14.874 45.2017 14.492L45.2017 5.46742C45.2017 4.66377 45.7814 3.926 46.5719 3.84695 47.4941 3.75473 48.2714 4.47933 48.2714 5.3752L48.2714 9.69643C48.2714 12.5421 50.4188 15.0321 53.2645 15.2297 56.3869 15.4405 58.9823 12.9637 58.9823 9.89405L58.9823 0.685074C58.9823 0.316188 58.6792 0 58.2972 0L55.8335 0C55.4647 0 55.1485 0.303014 55.1485 0.685074L55.1485 9.88088Z" fill="#FFFFFF" fill-rule="nonzero" fill-opacity="1" transform="matrix(1 0 0 1.00492 44 44.2695)"/><path d="M12.2918 5.75726 4.86139 5.75726C4.26854 5.75726 3.79426 5.3225 3.79426 4.79552 3.79426 4.26854 4.28171 3.83378 4.86139 3.83378L16.3627 3.83378C16.7316 3.83378 17.0478 3.53077 17.0478 3.14871L17.0478 0.737772C17.0478 0.368886 16.7448 0.052698 16.3627 0.052698L4.86139 0.052698C2.17379 0.052698 0 2.18697 0 4.79552 0 7.40407 2.17379 9.53834 4.86139 9.53834L12.2918 9.53834C12.8847 9.53834 13.3721 9.9731 13.3721 10.5001 13.3721 11.0271 12.8847 11.4618 12.2918 11.4618L0.79047 11.4618C0.421584 11.4618 0.105396 11.7648 0.105396 12.1469L0.105396 14.571C0.105396 14.9399 0.40841 15.2561 0.79047 15.2561L12.2918 15.2561C14.9662 15.2561 17.1532 13.1218 17.1532 10.5133 17.1532 7.9047 14.9662 5.77043 12.2918 5.77043Z" fill="#FFFFFF" fill-rule="nonzero" fill-opacity="1" transform="matrix(1 0 0 1.00492 44 44.2695)"/><path d="M58.3762 21.0002 42.6986 21.0002C42.3297 21.0002 42.0135 21.3032 42.0135 21.6852L42.0135 24.1489C42.0135 24.5177 42.3165 24.8339 42.6986 24.8339L48.6007 24.8339 48.6007 35.5712C48.6007 35.94 48.9038 36.2562 49.2858 36.2562L51.7494 36.2562C52.1183 36.2562 52.4345 35.9532 52.4345 35.5712L52.4345 24.8339 58.3894 24.8339C58.7583 24.8339 59.0745 24.5309 59.0745 24.1489L59.0745 21.6852C59.0745 21.3163 58.7715 21.0002 58.3894 21.0002Z" fill="#FFFFFF" fill-rule="nonzero" fill-opacity="1" transform="matrix(1 0 0 1.00492 44 44.2695)"/><path d="M25.7957 26.8365 25.7298 26.8365C25.1897 26.8365 24.7549 26.3754 24.7549 25.8089 24.7549 25.2423 25.1897 24.7812 25.7298 24.7812L37.6 24.7812C37.9689 24.7812 38.2851 24.4782 38.2851 24.0962L38.2851 21.7379C38.2851 21.369 37.9821 21.0529 37.6 21.0529L25.7298 21.0529C23.1476 21.0529 21.0397 23.1871 21.0397 25.8089 21.0397 26.9155 21.4217 27.9168 22.0409 28.7336 21.4086 29.5899 21.0397 30.6571 21.1056 31.8164 21.2505 34.3328 23.4506 36.2299 25.9669 36.2299L37.6659 36.2299C38.0348 36.2299 38.351 35.9269 38.351 35.5448L38.351 33.1866C38.351 32.8177 38.048 32.5015 37.6659 32.5015L25.8484 32.5015C25.3609 32.5015 24.913 32.1721 24.8339 31.6847 24.7285 31.0787 25.2028 30.5385 25.7957 30.5385L38.351 30.5385 38.351 26.8233 25.7957 26.8233Z" fill="#FFFFFF" fill-rule="nonzero" fill-opacity="1" transform="matrix(1 0 0 1.00492 44 44.2695)"/><path d="M112.458 31.3026 94.8169 31.3026C91.7868 31.3026 89.3231 28.7995 89.3231 25.7298L89.3231 4.37393 86.9912 4.37393 81.6951 4.33441C81.5502 4.33441 81.4316 4.45298 81.4316 4.5979L81.4316 8.7347C81.4316 8.87961 81.5502 8.99819 81.6951 8.99819L84.6594 8.99819 84.6594 25.7562C84.6594 31.3948 89.2177 35.9796 94.8169 35.9796L112.458 35.9796C112.602 35.9796 112.721 35.861 112.721 35.7161L112.721 31.5793C112.721 31.4344 112.602 31.3158 112.458 31.3158Z" fill="#FFFFFF" fill-rule="nonzero" fill-opacity="1" transform="matrix(1 0 0 1.00492 44 44.2695)"/><path d="M79.7321 0 75.5953 0C75.4504 0 75.3318 0.118571 75.3318 0.26349L75.3318 4.32124C73.764 4.29489 72.4861 3.01696 72.4861 1.43602L72.4861 0.26349C72.4861 0.118571 72.3675 0 72.2226 0L68.0858 0C67.9409 0 67.8223 0.118571 67.8223 0.26349L67.8223 1.43602C67.8223 5.58599 71.1818 8.95866 75.3318 8.97184L75.3318 23.7273C75.3318 27.8641 72.0382 31.2367 67.9409 31.3685 67.796 31.3685 67.6906 31.4871 67.6906 31.6188L67.6906 35.7556C67.6906 35.9005 67.8092 36.0191 67.9541 36.0191 74.6072 35.8742 79.9824 30.4199 79.9824 23.7273L79.9824 0.26349C79.9824 0.118571 79.8638 0 79.7189 0Z" fill="#FFFFFF" fill-rule="nonzero" fill-opacity="1" transform="matrix(1 0 0 1.00492 44 44.2695)"/><path d="M112.8 7.27233C112.8 3.58346 109.796 0.592853 106.094 0.592853L98.1764 0.592853C94.4744 0.592853 91.4706 3.58346 91.4706 7.27233L91.4706 21.3032C91.4706 24.992 94.4744 27.9826 98.1764 27.9826L104.619 27.9826C104.764 27.9826 104.882 27.8641 104.882 27.7192L104.882 23.5824C104.882 23.4374 104.764 23.3189 104.619 23.3189L98.1764 23.3189C97.0434 23.3189 96.1212 22.4098 96.1212 21.29L96.1212 7.27233C96.1212 6.15249 97.0434 5.24345 98.1764 5.24345L106.094 5.24345C107.227 5.24345 108.149 6.15249 108.149 7.27233L108.149 8.64247C106.872 11.5672 104 13.4775 100.745 13.4775L98.6243 13.4775C98.4794 13.4775 98.3608 13.5961 98.3608 13.741L98.3608 17.8778C98.3608 18.0227 98.4794 18.1413 98.6243 18.1413L100.745 18.1413C103.486 18.1413 106.042 17.2849 108.149 15.7831L108.149 20.5391C108.149 20.684 108.268 20.8025 108.413 20.8025L112.55 20.8025C112.695 20.8025 112.813 20.684 112.813 20.5391L112.813 7.27233Z" fill="#FFFFFF" fill-rule="nonzero" fill-opacity="1" transform="matrix(1 0 0 1.00492 44 44.2695)"/><path d="M112.523 25.6508C112.523 27.1205 111.332 28.312 109.862 28.312 108.392 28.312 107.201 27.1205 107.201 25.6508 107.201 24.181 108.392 22.9895 109.862 22.9895 111.332 22.9895 112.523 24.181 112.523 25.6508Z" fill="#FFFFFF" fill-rule="nonzero" fill-opacity="1" transform="matrix(1 0 0 1.00492 44 44.2695)"/><path d="M131.613 0.0395235 122.299 0.0395235C122.154 0.0395235 122.035 0.158094 122.035 0.303014L122.035 4.34759C122.035 4.49251 122.154 4.61108 122.299 4.61108L131.613 4.61108 131.613 23.0027C131.613 24.4651 130.428 25.6639 128.952 25.6639L127.292 25.6639 127.292 21.0133 129.044 21.0133C129.189 21.0133 129.308 20.8948 129.308 20.7498L129.308 16.7053C129.308 16.5604 129.189 16.4418 129.044 16.4418L127.292 16.4418 127.292 13.7278 129.044 13.7278C129.189 13.7278 129.308 13.6093 129.308 13.4643L129.308 9.41977C129.308 9.27485 129.189 9.15628 129.044 9.15628L127.292 9.15628 127.292 6.41598C127.292 6.27106 127.173 6.15249 127.029 6.15249L122.984 6.15249C122.839 6.15249 122.72 6.27106 122.72 6.41598L122.72 25.6508 122.286 25.6508C122.141 25.6508 122.022 25.7693 122.022 25.9142L122.022 29.9588C122.022 30.1037 122.141 30.2223 122.286 30.2223L128.939 30.2223C129.874 30.2223 130.77 30.0379 131.6 29.7085L131.6 35.7161C131.6 35.861 131.719 35.9796 131.864 35.9796L135.908 35.9796C136.053 35.9796 136.172 35.861 136.172 35.7161L136.172 0.026349 131.6 0.026349Z" fill="#FFFFFF" fill-rule="nonzero" fill-opacity="1" transform="matrix(1 0 0 1.00492 44 44.2695)"/><path d="M153.575 10.0917 155.103 10.0917C157.119 10.0917 159.003 9.48564 160.584 8.45803 159.991 10.8821 157.817 12.687 155.209 12.687L153.681 12.687C153.536 12.687 153.417 12.8056 153.417 12.9505L153.417 16.9951C153.417 17.14 153.536 17.2586 153.681 17.2586L166.737 17.2586C166.881 17.2586 167 17.14 167 16.9951L167 12.9505C167 12.8056 166.881 12.687 166.737 12.687L163.641 12.687C164.642 11.172 165.235 9.36707 165.287 7.43042 165.287 7.2855 165.169 7.16693 165.024 7.16693L162.191 7.16693C163.983 5.40155 165.103 2.96426 165.182 0.276665 165.182 0.131745 165.063 0.0131745 164.918 0.0131745L160.861 0.0131745C160.729 0.0131745 160.61 0.118571 160.61 0.26349 160.479 3.2014 158.055 5.54647 155.09 5.54647L153.562 5.54647C153.417 5.54647 153.299 5.66504 153.299 5.80996L153.299 9.85453C153.299 9.99945 153.417 10.118 153.562 10.118Z" fill="#FFFFFF" fill-rule="nonzero" fill-opacity="1" transform="matrix(1 0 0 1.00492 44 44.2695)"/><path d="M137.937 10.0917 139.465 10.0917C141.481 10.0917 143.365 9.48564 144.946 8.45803 144.353 10.8821 142.179 12.687 139.571 12.687L138.042 12.687C137.898 12.687 137.779 12.8056 137.779 12.9505L137.779 16.9951C137.779 17.14 137.898 17.2586 138.042 17.2586L151.098 17.2586C151.243 17.2586 151.362 17.14 151.362 16.9951L151.362 12.9505C151.362 12.8056 151.243 12.687 151.098 12.687L148.016 12.687C149.017 11.172 149.61 9.36707 149.662 7.43042 149.662 7.2855 149.544 7.16693 149.399 7.16693L146.566 7.16693C148.358 5.40155 149.478 2.96426 149.557 0.276665 149.557 0.131745 149.438 0.0131745 149.293 0.0131745L145.236 0.0131745C145.104 0.0131745 144.985 0.118571 144.985 0.26349 144.854 3.2014 142.43 5.54647 139.465 5.54647L137.937 5.54647C137.792 5.54647 137.674 5.66504 137.674 5.80996L137.674 9.85453C137.674 9.99945 137.792 10.118 137.937 10.118Z" fill="#FFFFFF" fill-rule="nonzero" fill-opacity="1" transform="matrix(1 0 0 1.00492 44 44.2695)"/><path d="M157.488 19.0899C157.634 19.0899 157.751 19.2078 157.751 19.3533L157.751 35.6766C157.751 35.8221 157.634 35.94 157.488 35.94L153.443 35.94C153.298 35.94 153.18 35.8221 153.18 35.6766L153.18 19.3533C153.18 19.2078 153.298 19.0899 153.443 19.0899Z" fill="#FFFFFF" fill-rule="nonzero" fill-opacity="1" transform="matrix(1 0 0 1.00492 44 44.2695)"/><path d="M140.901 19.0899C140.756 19.0899 140.638 19.2084 140.638 19.3533L140.638 21.1846C140.638 23.0949 139.465 24.6627 137.977 24.8076 137.845 24.8208 137.739 24.9262 137.739 25.0579L137.739 29.1157C137.739 29.2606 137.858 29.3923 138.016 29.3791 142.008 29.221 145.209 25.5981 145.209 21.1846L145.209 19.3533C145.209 19.2084 145.091 19.0899 144.946 19.0899L140.901 19.0899Z" fill="#FFFFFF" fill-rule="nonzero" fill-opacity="1" transform="matrix(1 0 0 1.00492 44 44.2695)"/><path d="M151.296 19.0899 147.251 19.0899C147.107 19.0899 146.988 19.2084 146.988 19.3533L146.988 21.9619C146.988 22.6074 146.909 25.8747 144.287 28.5491 141.889 30.9864 138.965 31.3158 137.977 31.3685 137.845 31.3685 137.739 31.4871 137.739 31.632L137.739 35.6766C137.739 35.8215 137.858 35.94 138.003 35.94 139.386 35.8873 143.971 35.4921 147.647 31.6847 151.454 27.7323 151.559 22.9632 151.573 21.9751L151.573 19.3665C151.573 19.2216 151.454 19.103 151.309 19.103Z" fill="#FFFFFF" fill-rule="nonzero" fill-opacity="1" transform="matrix(1 0 0 1.00492 44 44.2695)"/><path d="M166.75 19.0899 162.705 19.0899C162.56 19.0899 162.442 19.2084 162.442 19.3533L162.442 21.7379C162.442 22.0278 162.363 22.2913 162.204 22.5416 161.994 22.8841 161.743 23.0817 161.572 23.1871 160.9 23.6482 160.044 23.7009 159.583 23.6878 159.438 23.6878 159.319 23.7932 159.319 23.9381L159.319 28.233C159.728 28.2725 162.666 28.536 164.932 26.3227 166.789 24.5177 166.974 22.2649 167 21.7248L167 19.3402C167 19.1952 166.881 19.0767 166.737 19.0767Z" fill="#FFFFFF" fill-rule="nonzero" fill-opacity="1" transform="matrix(1 0 0 1.00492 44 44.2695)"/></g></g></g></g></g></svg>